<svg width="30" height="30" viewBox="0 0 30 30" fill="none" xmlns="http://www.w3.org/2000/svg">
<path d="M12.1875 20.625C14.2586 20.625 15.9375 18.9461 15.9375 16.875C15.9375 14.8039 14.2586 13.125 12.1875 13.125C10.1164 13.125 8.4375 14.8039 8.4375 16.875C8.4375 18.9461 10.1164 20.625 12.1875 20.625Z" stroke="white" stroke-width="1.6" stroke-linecap="round" stroke-linejoin="round"/>
<path d="M6.2566 24.3749C6.78923 23.2528 7.62922 22.3049 8.67905 21.6411C9.72887 20.9773 10.9454 20.625 12.1875 20.625C13.4296 20.625 14.6461 20.9773 15.696 21.6411C16.7458 22.3049 17.5858 23.2528 18.1184 24.3749L25.3125 24.375C25.4356 24.375 25.5575 24.3508 25.6713 24.3036C25.785 24.2565 25.8883 24.1875 25.9754 24.1004C26.0625 24.0134 26.1315 23.91 26.1786 23.7963C26.2258 23.6825 26.25 23.5606 26.25 23.4375V6.5625C26.25 6.31386 26.1512 6.0754 25.9754 5.89959C25.7996 5.72377 25.5611 5.625 25.3125 5.625H4.6875C4.43886 5.625 4.2004 5.72377 4.02459 5.89959C3.84877 6.0754 3.75 6.31386 3.75 6.5625V23.4376C3.75 23.5607 3.77425 23.6826 3.82136 23.7963C3.86848 23.9101 3.93754 24.0134 4.02459 24.1005C4.11165 24.1875 4.215 24.2566 4.32874 24.3037C4.44248 24.3508 4.56439 24.375 4.6875 24.375L6.2566 24.3749Z" stroke="white" stroke-width="1.6" stroke-linecap="round" stroke-linejoin="round"/>
<path d="M20.625 20.625H22.5V9.375H7.5V11.25" stroke="white" stroke-width="1.6" stroke-linecap="round" stroke-linejoin="round"/>
</svg>
