<svg width="30" height="30" viewBox="0 0 30 30" fill="none" xmlns="http://www.w3.org/2000/svg">
<path d="M3.99276 16.4937C2.94446 14.7266 2.57734 12.6375 2.96033 10.6187C3.34332 8.60004 4.45008 6.79057 6.07279 5.53013C7.69549 4.26969 9.72252 3.64498 11.7732 3.77331C13.8239 3.90164 15.7573 4.77418 17.2102 6.22708C18.6631 7.67999 19.5356 9.61331 19.664 11.664C19.7923 13.7147 19.1676 15.7418 17.9072 17.3645C16.6467 18.9872 14.8373 20.094 12.8186 20.477C10.7999 20.86 8.71077 20.4928 6.94358 19.4445L6.9436 19.4445L4.02945 20.2771C3.90888 20.3115 3.78129 20.3131 3.65991 20.2816C3.53853 20.2502 3.42777 20.1869 3.3391 20.0982C3.25043 20.0095 3.18709 19.8988 3.15564 19.7774C3.12419 19.656 3.12576 19.5284 3.16021 19.4078L3.99283 16.4937L3.99276 16.4937Z" stroke="white" stroke-width="1.6" stroke-linecap="round" stroke-linejoin="round"/>
<path d="M10.7881 20.6122C11.2029 21.7897 11.8736 22.8606 12.752 23.7477C13.6305 24.6347 14.6947 25.316 15.8681 25.7423C17.0414 26.1686 18.2948 26.3294 19.5377 26.2131C20.7807 26.0967 21.9825 25.7062 23.0564 25.0696L23.0563 25.0695L25.9705 25.9021C26.0911 25.9366 26.2186 25.9381 26.34 25.9067C26.4614 25.8752 26.5722 25.8119 26.6608 25.7232C26.7495 25.6346 26.8128 25.5238 26.8443 25.4024C26.8757 25.281 26.8742 25.1534 26.8397 25.0329L26.0071 22.1187L26.0072 22.1188C26.747 20.8711 27.1527 19.4539 27.1853 18.0038C27.2179 16.5537 26.8762 15.1196 26.1931 13.84C25.5101 12.5604 24.5088 11.4784 23.2859 10.6985C22.063 9.91853 20.6597 9.46691 19.2114 9.38721" stroke="white" stroke-width="1.6" stroke-linecap="round" stroke-linejoin="round"/>
</svg>
