<svg width="14" height="12" viewBox="0 0 14 12" fill="none" xmlns="http://www.w3.org/2000/svg">
<path d="M12.8339 1.97111C12.3127 0.90167 10.8116 0.0266703 9.06552 0.536115C8.23114 0.777124 7.50316 1.29398 7.00052 2.00223C6.49787 1.29398 5.76989 0.777124 4.93552 0.536115C3.18552 0.0344481 1.6883 0.90167 1.16718 1.97111C0.436074 3.46834 0.739407 5.15223 2.06941 6.97612C3.11163 8.40334 4.60107 9.85 6.7633 11.53C6.83163 11.5833 6.9158 11.6122 7.00246 11.6122C7.08912 11.6122 7.1733 11.5833 7.24163 11.53C9.39996 9.85389 10.8933 8.41889 11.9355 6.97612C13.2616 5.15223 13.565 3.46834 12.8339 1.97111Z" fill="#976464"/>
</svg>
