<svg width="16" height="15" viewBox="0 0 16 15" fill="none" xmlns="http://www.w3.org/2000/svg">
<path d="M7.99902 14.434C7.88853 14.4336 7.78126 14.3967 7.69397 14.3289C4.91353 12.1686 2.99822 10.3083 1.658 8.47301C-0.052272 6.12763 -0.442335 3.96228 0.497817 2.03698C1.16792 0.661755 3.09323 -0.463425 5.3436 0.19168C6.41654 0.501599 7.35266 1.16623 7.99902 2.07698C8.64538 1.16623 9.58151 0.501599 10.6545 0.19168C12.8998 -0.453424 14.8301 0.661755 15.5002 2.03698C16.4404 3.96228 16.0503 6.12763 14.34 8.47301C12.9998 10.3083 11.0845 12.1686 8.30407 14.3289C8.21678 14.3967 8.10952 14.4336 7.99902 14.434Z" fill="url(#paint0_linear_111_777)"/>
<defs>
<linearGradient id="paint0_linear_111_777" x1="-3.46044" y1="-9.02123" x2="19.9082" y2="-3.28645" gradientUnits="userSpaceOnUse">
<stop stop-color="#976464"/>
<stop offset="1" stop-color="#CFA5A5"/>
</linearGradient>
</defs>
</svg>
